<svg width="16" height="16" viewBox="0 0 16 16" fill="none" xmlns="http://www.w3.org/2000/svg">
<g id="&#240;&#159;&#166;&#134; icon &#34;call&#34;">
<path id="Vector" d="M11.5518 15.3026C10.7613 15.3026 9.92892 15.1138 9.06852 14.75C8.22911 14.3933 7.38271 13.9036 6.55729 13.309C5.73886 12.7075 4.94841 12.0359 4.19994 11.3014C3.45846 10.553 2.78693 9.76253 2.19234 8.95109C1.59077 8.11168 1.1081 7.27227 0.765344 6.46084C0.401599 5.59345 0.219727 4.75404 0.219727 3.96359C0.219727 3.41797 0.317658 2.90034 0.506526 2.41767C0.702388 1.92102 1.01717 1.45935 1.44387 1.06062C1.98249 0.528997 2.59806 0.263184 3.2556 0.263184C3.52841 0.263184 3.80821 0.326139 4.04604 0.438061C4.31885 0.563973 4.54969 0.75284 4.71757 1.00466L6.34044 3.29206C6.48733 3.49492 6.59926 3.69078 6.6762 3.88664C6.76714 4.0965 6.8161 4.30635 6.8161 4.50921C6.8161 4.77502 6.73916 5.03384 6.59226 5.27867C6.48733 5.46754 6.32645 5.67039 6.12359 5.87325L5.64792 6.3699C5.65492 6.39089 5.66191 6.40488 5.66891 6.41887C5.75285 6.56577 5.92073 6.81759 6.24251 7.19532C6.58527 7.58705 6.90704 7.9438 7.22881 8.27257C7.64153 8.67829 7.98428 9.00006 8.30606 9.26587C8.70478 9.60164 8.9636 9.76952 9.11749 9.84647L9.1035 9.88144L9.61414 9.3778C9.83099 9.16095 10.0408 9.00006 10.2437 8.89513C10.6284 8.6573 11.1181 8.61533 11.6077 8.81819C11.7896 8.89513 11.9855 9.00006 12.1953 9.14696L14.5177 10.7978C14.7765 10.9727 14.9654 11.1965 15.0773 11.4623C15.1822 11.7281 15.2312 11.973 15.2312 12.2178C15.2312 12.5536 15.1543 12.8893 15.0074 13.2041C14.8605 13.5189 14.6786 13.7917 14.4478 14.0435C14.049 14.4842 13.6153 14.799 13.1117 15.0019C12.629 15.1977 12.1044 15.3026 11.5518 15.3026ZM3.2556 1.31245C2.87087 1.31245 2.51412 1.48033 2.17136 1.8161C1.84958 2.11688 1.62574 2.44565 1.48584 2.8024C1.33894 3.16615 1.26899 3.55088 1.26899 3.96359C1.26899 4.61413 1.42288 5.32064 1.73067 6.04813C2.04545 6.78961 2.48614 7.55907 3.04575 8.32853C3.60535 9.09799 4.24191 9.84647 4.94142 10.553C5.64093 11.2455 6.3964 11.889 7.17285 12.4556C7.92832 13.0083 8.70478 13.4559 9.47424 13.7777C10.6704 14.2884 11.7896 14.4073 12.713 14.0225C13.0697 13.8756 13.3845 13.6518 13.6713 13.33C13.8322 13.1551 13.9581 12.9663 14.063 12.7424C14.147 12.5676 14.1889 12.3857 14.1889 12.2038C14.1889 12.0919 14.168 11.98 14.112 11.8541C14.091 11.8121 14.049 11.7351 13.9161 11.6442L11.5938 9.99336C11.4539 9.89543 11.3279 9.82548 11.209 9.77652C11.0551 9.71356 10.9922 9.6506 10.7543 9.7975C10.6144 9.86745 10.4885 9.97238 10.3486 10.1123L9.817 10.6369C9.54419 10.9027 9.12449 10.9657 8.80271 10.8468L8.61384 10.7628C8.32704 10.6089 7.99128 10.3711 7.62054 10.0563C7.28477 9.76952 6.92103 9.43376 6.48034 9.00006C6.13758 8.6503 5.79482 8.27956 5.43807 7.86685C5.1093 7.48212 4.87147 7.15335 4.72457 6.88055L4.64063 6.67069C4.59866 6.50981 4.58467 6.41887 4.58467 6.32094C4.58467 6.06911 4.6756 5.84527 4.85048 5.67039L5.37511 5.12478C5.51502 4.98487 5.61994 4.85197 5.68989 4.73305C5.74585 4.64211 5.76684 4.56517 5.76684 4.49522C5.76684 4.43926 5.74585 4.35532 5.71088 4.27137C5.66191 4.15945 5.58497 4.03354 5.48703 3.90063L3.86417 1.60624C3.79422 1.50831 3.71028 1.43836 3.60535 1.38939C3.49343 1.34043 3.37452 1.31245 3.2556 1.31245ZM9.1035 9.88844L8.99158 10.3641L9.18045 9.87445C9.14547 9.86745 9.11749 9.87445 9.1035 9.88844Z" fill="white"/>
</g>
</svg>
